 <svg class="w-4 h-4 me-1.5" viewBox="0 0 18 18" fill="none" xmlns="http://www.w3.org/2000/svg">
                        <circle cx="9" cy="9" r="7.5" fill="#1A47B8"/>
                        <mask id="mask0_19127_84442" style="mask-type:alpha" maskUnits="userSpaceOnUse" x="1" y="1" width="16" height="16">
                        <circle cx="9" cy="9" r="7.5" fill="#0052B4"/>
                        </mask>
                        <g mask="url(#mask0_19127_84442)">
                        <mask id="mask1_19127_84442" style="mask-type:alpha" maskUnits="userSpaceOnUse" x="1" y="1" width="9" height="7">
                        <rect x="1.5" y="1.5" width="8.125" height="5.90909" fill="#D9D9D9"/>
                        </mask>
                        <g mask="url(#mask1_19127_84442)">
                        <rect width="10.2914" height="0.95751" transform="matrix(0.797977 0.602688 -0.350568 0.936537 1.59894 0.617188)" fill="white"/>
                        <rect width="4.59189" height="0.348185" transform="matrix(0.797977 0.602688 -0.350568 0.936537 1.49011 1.13037)" fill="#C8102E"/>
                        <rect width="3.90254" height="0.348185" transform="matrix(0.797977 0.602688 -0.350568 0.936537 6.62762 4.63916)" fill="#C8102E"/>
                        <rect width="10.2914" height="0.95751" transform="matrix(0.797977 -0.602688 0.350568 0.936537 1.24286 7.05615)" fill="white"/>
                        <rect width="4.32239" height="0.348185" transform="matrix(0.797977 -0.602688 0.350568 0.936537 6.11646 3.55151)" fill="#C8102E"/>
                        <rect width="4.19028" height="0.348185" transform="matrix(0.797977 -0.602688 0.350568 0.936537 1.56262 7.4541)" fill="#C8102E"/>
                        <rect x="1.48352" y="3.3916" width="8.32" height="2.03125" fill="white"/>
                        <rect x="4.92609" y="7.36096" width="5.90909" height="1.43" transform="rotate(-90 4.92609 7.36096)" fill="white"/>
                        <rect x="5.38446" y="7.36096" width="5.90909" height="0.585" transform="rotate(-90 5.38446 7.36096)" fill="#C8102E"/>
                        <rect x="1.48352" y="4.03821" width="8.32" height="0.830966" fill="#C8102E"/>
                        </g>
                        </g>
                        <path d="M6.02392 10.3043L6.43554 11.165L7.36504 10.9502L6.94879 11.8086L7.69627 12.4014L6.7656 12.6112L6.7682 13.5652L6.02392 12.9683L5.27966 13.5652L5.28227 12.6112L4.35156 12.4014L5.09907 11.8086L4.68276 10.9502L5.61232 11.165L6.02392 10.3043Z" fill="white"/>
                        <path d="M12.7292 11.9349L12.935 12.3653L13.3998 12.2578L13.1917 12.6871L13.5654 12.9835L13.1001 13.0884L13.1014 13.5654L12.7292 13.2669L12.3571 13.5654L12.3584 13.0884L11.8931 12.9835L12.2668 12.6871L12.0587 12.2578L12.5234 12.3653L12.7292 11.9349Z" fill="white"/>
                        <path d="M10.8151 7.36963L11.0209 7.8L11.4856 7.69254L11.2775 8.12177L11.6512 8.41816L11.1859 8.52305L11.1872 9.00006L10.8151 8.70161L10.4429 9.00006L10.4442 8.52305L9.97888 8.41816L10.3526 8.12177L10.1445 7.69254L10.6093 7.8L10.8151 7.36963Z" fill="white"/>
                        <path d="M12.7292 4.76086L12.935 5.19124L13.3998 5.0838L13.1917 5.51303L13.5654 5.8094L13.1001 5.91431L13.1014 6.39132L12.7292 6.09288L12.3571 6.39132L12.3584 5.91431L11.8931 5.8094L12.2668 5.51303L12.0587 5.0838L12.5234 5.19124L12.7292 4.76086Z" fill="white"/>
                        <path d="M14.4016 6.71729L14.6074 7.14766L15.0722 7.04019L14.864 7.46942L15.2378 7.76582L14.7724 7.87073L14.7737 8.34771L14.4016 8.0493L14.0295 8.34771L14.0308 7.87073L13.5654 7.76582L13.9392 7.46942L13.731 7.04019L14.1958 7.14766L14.4016 6.71729Z" fill="white"/>
                        <path d="M13.2061 8.99988L13.368 9.4981H13.8919L13.4681 9.80604L13.63 10.3042L13.2061 9.99632L12.7823 10.3042L12.9442 9.80604L12.5204 9.4981H13.0442L13.2061 8.99988Z" fill="white"/>
                    </svg>