    <svg class="w-4 h-4 me-1.5" viewBox="0 0 18 18" fill="none" xmlns="http://www.w3.org/2000/svg">
                        <path d="M9.00012 16.5C13.1423 16.5 16.5002 13.1421 16.5002 9C16.5002 4.85786 13.1423 1.5 9.00012 1.5C4.85792 1.5 1.5 4.85786 1.5 9C1.5 13.1421 4.85792 16.5 9.00012 16.5Z" fill="white"/>
                        <path d="M16.5009 8.99956C16.5009 6.02627 14.7705 3.4572 12.2619 2.24414V15.7549C14.7705 14.5419 16.5009 11.9728 16.5009 8.99956Z" fill="#D80027"/>
                        <path d="M1.5 8.99955C1.5 11.9728 3.23035 14.5419 5.73897 15.755V2.24414C3.23035 3.4572 1.5 6.02627 1.5 8.99955Z" fill="#D80027"/>
                        <path d="M10.3031 9.9782L11.6073 9.32606L10.9552 9.00001V8.34787L9.65092 9.00001L10.3031 7.69573H9.65092L8.99877 6.71753L8.34662 7.69573H7.69447L8.34662 9.00001L7.04232 8.34787V9.00001L6.3902 9.32606L7.69447 9.9782L7.36841 10.6303H8.67271V11.6085H9.32483V10.6303H10.6291L10.3031 9.9782Z" fill="#D80027"/>
                    </svg>