  <svg class="w-4 h-4 me-1.5" viewBox="0 0 18 18" fill="none" xmlns="http://www.w3.org/2000/svg">
                        <path d="M9 16.5C13.1421 16.5 16.5 13.1421 16.5 9C16.5 4.85786 13.1421 1.5 9 1.5C4.85786 1.5 1.5 4.85786 1.5 9C1.5 13.1421 4.85786 16.5 9 16.5Z" fill="white"/>
                        <path d="M3.05081 4.43384C2.46168 5.20033 2.01745 6.08378 1.75879 7.04352H5.66049L3.05081 4.43384Z" fill="#1A47B8"/>
                        <path d="M16.2415 7.04349C15.9828 6.08378 15.5386 5.20033 14.9495 4.43384L12.3398 7.04349H16.2415Z" fill="#1A47B8"/>
                        <path d="M1.75879 10.9567C2.01748 11.9164 2.46171 12.7998 3.05081 13.5663L5.6604 10.9567H1.75879Z" fill="#1A47B8"/>
                        <path d="M13.5677 3.05047C12.8012 2.46134 11.9178 2.01711 10.9581 1.75842V5.66009L13.5677 3.05047Z" fill="#1A47B8"/>
                        <path d="M4.43457 14.9497C5.20106 15.5388 6.08451 15.983 7.04422 16.2417V12.3401L4.43457 14.9497Z" fill="#1A47B8"/>
                        <path d="M7.04419 1.75842C6.08448 2.01711 5.20104 2.46134 4.43457 3.05044L7.04419 5.66006V1.75842Z" fill="#1A47B8"/>
                        <path d="M10.9581 16.2417C11.9178 15.983 12.8012 15.5388 13.5677 14.9497L10.9581 12.3401V16.2417Z" fill="#1A47B8"/>
                        <path d="M12.3398 10.9568L14.9495 13.5664C15.5386 12.8 15.9828 11.9165 16.2415 10.9568H12.3398Z" fill="#1A47B8"/>
                        <path d="M16.4365 8.02175H9.97831H9.97828V1.56349C9.65804 1.5218 9.33155 1.5 9 1.5C8.66839 1.5 8.34196 1.5218 8.02175 1.56349V8.02169V8.02172H1.56349C1.5218 8.34196 1.5 8.66845 1.5 9C1.5 9.33161 1.5218 9.65804 1.56349 9.97825H8.02169H8.02172V16.4365C8.34196 16.4782 8.66839 16.5 9 16.5C9.33155 16.5 9.65804 16.4782 9.97825 16.4365V9.97831V9.97828H16.4365C16.4782 9.65804 16.5 9.33161 16.5 9C16.5 8.66845 16.4782 8.34196 16.4365 8.02175Z" fill="#D80027"/>
                        <path d="M10.9556 10.9566L14.3023 14.3033C14.4563 14.1495 14.6031 13.9886 14.7432 13.8218L11.8779 10.9565H10.9556V10.9566Z" fill="#D80027"/>
                        <path d="M7.04405 10.9565H7.04399L3.69727 14.3033C3.85113 14.4572 4.012 14.604 4.17876 14.7441L7.04405 11.8788V10.9565Z" fill="#D80027"/>
                        <path d="M7.04299 7.0435V7.04344L3.69623 3.69666C3.5423 3.85052 3.39547 4.01139 3.25537 4.17815L6.12069 7.04347H7.04299V7.0435Z" fill="#D80027"/>
                        <path d="M10.9556 7.04363L14.3024 3.69681C14.1485 3.54289 13.9876 3.39605 13.8209 3.25598L10.9556 6.1213V7.04363Z" fill="#D80027"/>
                    </svg>